<svg width="17" height="25" viewBox="0 0 17 25" fill="none" xmlns="http://www.w3.org/2000/svg">
<path fill-rule="evenodd" clip-rule="evenodd" d="M10.2649 19.7101C10.2427 19.8797 10.2253 20.0513 10.2147 20.2228H6.53839C6.52682 20.0503 6.51044 19.8788 6.48731 19.7101H10.2649ZM10.1945 21.5575V21.8716C10.1945 22.8738 9.37925 23.6891 8.37705 23.6891C7.37388 23.6891 6.55862 22.8738 6.55862 21.8716V21.5575H10.1945ZM12.1372 7.70199C13.1828 8.72346 13.7591 10.0909 13.7591 11.5528C13.7591 12.8923 13.2638 14.1758 12.3637 15.1674C11.533 16.082 10.9076 17.1882 10.5501 18.3755H6.19629C5.83492 17.194 5.20276 16.0771 4.36245 15.1376C3.5019 14.1749 3.01621 12.9337 2.99501 11.6424C2.94587 8.69552 5.30201 6.24108 8.24599 6.1717C9.70015 6.14182 11.0907 6.68051 12.1372 7.70199V7.70199ZM13.0691 6.747C11.7653 5.47304 10.0615 4.79945 8.21419 4.83799C4.53976 4.92472 1.59964 7.98723 1.66035 11.6655C1.68733 13.2758 2.29347 14.8254 3.36795 16.027C4.05311 16.7941 4.57927 17.7048 4.88475 18.6501L5.11217 19.5511C5.18637 19.9597 5.22396 20.3722 5.22396 20.7798V21.8716C5.22396 23.4771 6.39287 24.8445 7.88462 24.9852C8.00604 24.9958 8.18046 25.0006 8.35681 25.0006C8.54954 25.0006 8.74324 24.9948 8.86755 24.9852C10.3603 24.8647 11.5292 23.4973 11.5292 21.8716V20.7788C11.5292 20.3722 11.5668 19.9588 11.6361 19.5637L11.8559 18.6684C12.1604 17.7077 12.6769 16.8066 13.3515 16.0646C14.4751 14.8273 15.0937 13.2257 15.0937 11.5528C15.0937 9.72856 14.3749 8.02192 13.0691 6.747V6.747Z" fill="white"/>
<path fill-rule="evenodd" clip-rule="evenodd" d="M9.04609 0.670231V2.78835C9.04609 3.1584 8.74639 3.4581 8.37635 3.4581C8.0063 3.4581 7.7066 3.1584 7.7066 2.78835V0.670231C7.7066 0.300186 8.0063 0.000488281 8.37635 0.000488281C8.74639 0.000488281 9.04609 0.300186 9.04609 0.670231" fill="white"/>
<path fill-rule="evenodd" clip-rule="evenodd" d="M16.5592 4.3846L15.0617 5.88212C14.7995 6.14424 14.3755 6.14424 14.1144 5.88212C13.8532 5.62097 13.8532 5.19696 14.1144 4.93581L15.6129 3.43829C15.874 3.17617 16.298 3.17617 16.5592 3.43829C16.8203 3.69944 16.8203 4.12345 16.5592 4.3846" fill="white"/>
<path fill-rule="evenodd" clip-rule="evenodd" d="M0.195864 4.3846L1.69339 5.88212C1.9555 6.14424 2.37951 6.14424 2.64067 5.88212C2.90182 5.62097 2.90182 5.19696 2.64067 4.93581L1.14218 3.43829C0.881025 3.17617 0.457015 3.17617 0.195864 3.43829C-0.0652879 3.69944 -0.0652879 4.12345 0.195864 4.3846" fill="white"/>
</svg>
