<svg width="14" height="18" viewBox="0 0 14 18" fill="none" xmlns="http://www.w3.org/2000/svg">
<path fill-rule="evenodd" clip-rule="evenodd" d="M0.5 4.48682C0.5 3.65839 1.17157 2.98682 2 2.98682H4.48653V3.98682H2C1.72386 3.98682 1.5 4.21067 1.5 4.48682V16.4694C1.5 16.7456 1.72386 16.9694 2 16.9694H12.0041C12.2802 16.9694 12.5041 16.7456 12.5041 16.4694V4.48682C12.5041 4.21067 12.2802 3.98682 12.0041 3.98682H9.60304V2.98682H12.0041C12.8325 2.98682 13.5041 3.65839 13.5041 4.48682V16.4694C13.5041 17.2978 12.8325 17.9694 12.0041 17.9694H2C1.17157 17.9694 0.5 17.2978 0.5 16.4694V4.48682Z" fill="white"/>
<rect x="2.48914" y="8" width="7" height="1" rx="0.5" fill="white"/>
<rect x="2.48914" y="11" width="8" height="1" rx="0.5" fill="white"/>
<rect x="2.48914" y="14" width="5" height="1" rx="0.5" fill="white"/>
<path fill-rule="evenodd" clip-rule="evenodd" d="M9.48914 3H4.48914V4H9.48914V3ZM3.48914 2V5H10.4891V2H3.48914Z" fill="white"/>
<path fill-rule="evenodd" clip-rule="evenodd" d="M7.48914 2V1.5C7.48914 1.22386 7.26528 1 6.98914 1C6.71299 1 6.48914 1.22386 6.48914 1.5V2H7.48914ZM6.98914 0C6.16071 0 5.48914 0.671573 5.48914 1.5V3H8.48914V1.5C8.48914 0.671573 7.81756 0 6.98914 0Z" fill="white"/>
</svg>
