<svg width="25" height="25" viewBox="0 0 25 25" fill="none" xmlns="http://www.w3.org/2000/svg">
<g clip-path="url(#clip0_1_757)">
<path fill-rule="evenodd" clip-rule="evenodd" d="M25 12.5C25 19.4035 19.4035 25 12.5 25C5.5965 25 0 19.4035 0 12.5C0 5.5965 5.5965 0 12.5 0C19.4035 0 25 5.5965 25 12.5Z" fill="#062436"/>
<path d="M13.3926 10.647C13.3932 10.7569 13.372 10.8659 13.3302 10.9676C13.2884 11.0693 13.2268 11.1617 13.149 11.2394C13.0712 11.3171 12.9787 11.3786 12.877 11.4204C12.7752 11.4621 12.6662 11.4832 12.5562 11.4824C12.4463 11.4831 12.3374 11.4619 12.2358 11.4201C12.1341 11.3783 12.0418 11.3168 11.9641 11.2391C11.8864 11.1614 11.8249 11.0691 11.7831 10.9674C11.7413 10.8658 11.7201 10.7568 11.7207 10.647C11.7207 10.4253 11.8087 10.2127 11.9654 10.0559C12.1221 9.89902 12.3346 9.81079 12.5562 9.81055C12.7781 9.81055 12.9908 9.89867 13.1477 10.0555C13.3045 10.2124 13.3926 10.4251 13.3926 10.647Z" fill="white"/>
<path d="M16.684 5.00001H16.1301V5.55393H14.6641V5.00001H8.3171C8.02284 4.99853 7.73994 5.11351 7.53014 5.31985C7.32035 5.52619 7.20068 5.80714 7.19727 6.10138V18.8996C7.20068 19.1937 7.32038 19.4746 7.5302 19.6808C7.74003 19.887 8.02293 20.0017 8.3171 20H11.2907V19.5384H15.8051V20H16.6831C16.9773 20.0017 17.2602 19.887 17.47 19.6808C17.6798 19.4746 17.7995 19.1937 17.8029 18.8996V6.10138C17.7995 5.8073 17.68 5.52649 17.4704 5.32017C17.2608 5.11386 16.9781 4.99878 16.684 5.00001ZM12.5998 14.9769C11.4498 14.9769 10.3469 14.5204 9.53328 13.7077C8.7197 12.895 8.26201 11.7925 8.26079 10.6426C8.26043 10.0233 8.39329 9.41123 8.65038 8.84787L8.46574 8.74263C8.26677 8.63352 8.09579 8.47979 7.96621 8.29351C7.83663 8.10723 7.75197 7.89345 7.71888 7.66896C7.69308 7.44347 7.71991 7.21507 7.79728 7.0017C7.87465 6.78833 8.00045 6.59581 8.16478 6.43927L8.18878 6.41434C8.3256 6.27253 8.48909 6.15916 8.66986 6.08074C8.85063 6.00231 9.04512 5.96038 9.24214 5.95736C9.49916 5.96182 9.75038 6.03442 9.97016 6.16774C10.1899 6.30107 10.3704 6.49034 10.4931 6.71623L10.5522 6.81778C11.1799 6.48149 11.8812 6.30609 12.5933 6.30725C13.7441 6.30725 14.8478 6.76439 15.6615 7.57811C16.4752 8.39183 16.9323 9.49548 16.9323 10.6462C16.9301 11.7945 16.4729 12.895 15.6608 13.7067C14.8487 14.5185 13.748 14.9752 12.5998 14.9769Z" fill="white"/>
<path d="M10.0357 7.14798L9.96462 7.02612C9.66181 6.50267 9.06266 6.4242 8.6343 6.85256L8.61029 6.87656C8.18193 7.30492 8.26041 7.90315 8.78478 8.20688L8.95187 8.30382C9.23962 7.85565 9.60695 7.46392 10.0357 7.14798Z" fill="white"/>
<path d="M10.0389 7.14844C9.60998 7.46493 9.24265 7.85729 8.95508 8.30612L10.6409 9.28285C11.1652 9.58658 11.3452 9.40563 11.0415 8.88219L10.0389 7.14844Z" fill="white"/>
</g>
<defs>
<clipPath id="clip0_1_757">
<rect width="25" height="25" fill="white"/>
</clipPath>
</defs>
</svg>
