<svg width="17" height="17" viewBox="0 0 17 17" fill="none" xmlns="http://www.w3.org/2000/svg">
<path fill-rule="evenodd" clip-rule="evenodd" d="M1 15.0705H12.429V14.6505C12.429 11.7645 10.081 9.41748 7.196 9.41748H6.233C3.348 9.41748 1 11.7645 1 14.6505V15.0705ZM13.429 16.0705H0V14.6505C0 11.2135 2.796 8.41748 6.233 8.41748H7.196C10.633 8.41748 13.429 11.2135 13.429 14.6505V16.0705Z" fill="white"/>
<path fill-rule="evenodd" clip-rule="evenodd" d="M6.71436 2.75C5.61136 2.75 4.71436 3.647 4.71436 4.75C4.71436 5.853 5.61136 6.75 6.71436 6.75C7.81736 6.75 8.71436 5.853 8.71436 4.75C8.71436 3.647 7.81736 2.75 6.71436 2.75ZM6.71436 7.75C5.06036 7.75 3.71436 6.404 3.71436 4.75C3.71436 3.096 5.06036 1.75 6.71436 1.75C8.36836 1.75 9.71436 3.096 9.71436 4.75C9.71436 6.404 8.36836 7.75 6.71436 7.75Z" fill="white"/>
<path fill-rule="evenodd" clip-rule="evenodd" d="M10.1597 6.66748L9.19666 7.66748H10.1597C13.0447 7.66748 15.3927 10.0155 15.3927 12.9005V13.3205H14.3937C14.4427 13.6465 14.4757 13.9775 14.4757 14.3165V14.3205H16.3927V12.9005C16.3927 9.46348 13.5967 6.66748 10.1597 6.66748Z" fill="white"/>
<path fill-rule="evenodd" clip-rule="evenodd" d="M9.6782 0C8.8222 0 8.0532 0.364 7.5072 0.941C7.9412 0.972 8.3532 1.075 8.7292 1.25C9.0132 1.096 9.3332 1 9.6782 1C10.7812 1 11.6782 1.897 11.6782 3C11.6782 3.714 11.2992 4.338 10.7342 4.691C10.6992 5.119 10.5962 5.524 10.4222 5.895C11.7152 5.562 12.6782 4.396 12.6782 3C12.6782 1.346 11.3322 0 9.6782 0Z" fill="white"/>
</svg>
