<svg width="17" height="17" viewBox="0 0 17 17" fill="none" xmlns="http://www.w3.org/2000/svg">
<path fill-rule="evenodd" clip-rule="evenodd" d="M11.961 10.26L12.735 14.702L8.73698 12.615C8.59098 12.536 8.41098 12.535 8.25398 12.615L4.26898 14.725L5.01698 10.276C5.04298 10.108 4.98698 9.938 4.86698 9.821L1.63298 6.681L6.09598 6.018C6.26598 5.991 6.41098 5.885 6.48198 5.735L8.46498 1.685L10.474 5.725C10.55 5.875 10.696 5.981 10.865 6.008L15.331 6.644L12.107 9.8C11.984 9.918 11.93 10.09 11.961 10.26ZM16.928 6.115C16.867 5.929 16.707 5.794 16.51 5.764L11.279 5.02L8.92398 0.287C8.83598 0.11 8.65798 0 8.46098 0C8.26298 0 8.08598 0.112 7.99798 0.291L5.67398 5.038L0.441981 5.816C0.245981 5.846 0.0859814 5.982 0.0249814 6.168C-0.0360186 6.354 0.0169814 6.562 0.158981 6.697L3.95498 10.376L3.07798 15.587C3.04298 15.783 3.12298 15.977 3.28398 16.092C3.37098 16.156 3.47798 16.192 3.58698 16.192C3.67298 16.192 3.75398 16.172 3.82798 16.131L8.49898 13.656L13.185 16.104C13.262 16.142 13.341 16.161 13.421 16.161C13.707 16.161 13.939 15.929 13.939 15.644C13.939 15.598 13.934 15.56 13.924 15.528L13.019 10.348L16.79 6.649C16.938 6.512 16.991 6.308 16.928 6.115Z" fill="white"/>
</svg>
