<svg width="23" height="21" viewBox="0 0 23 21" fill="none" xmlns="http://www.w3.org/2000/svg">
<path fill-rule="evenodd" clip-rule="evenodd" d="M8.71498 1.365V5.985H13.335V1.365H8.71498ZM8.39998 0C7.82008 0 7.34998 0.470101 7.34998 1.05V6.3C7.34998 6.8799 7.82008 7.35 8.39998 7.35H13.65C14.2299 7.35 14.7 6.8799 14.7 6.3V1.05C14.7 0.470101 14.2299 0 13.65 0H8.39998Z" fill="white"/>
<path fill-rule="evenodd" clip-rule="evenodd" d="M18.165 17.115V19.635H20.685V17.115H18.165ZM17.85 15.75C17.2701 15.75 16.8 16.2201 16.8 16.8V19.95C16.8 20.5299 17.2701 21 17.85 21H21C21.5799 21 22.05 20.5299 22.05 19.95V16.8C22.05 16.2201 21.5799 15.75 21 15.75H17.85Z" fill="white"/>
<rect x="10.5" y="8.3999" width="1.05" height="6.3" rx="0.5" fill="white"/>
<rect x="2.09998" y="11.5498" width="1.05" height="3.15" rx="0.5" fill="white"/>
<path fill-rule="evenodd" clip-rule="evenodd" d="M3.67325 11.55C3.38648 11.55 3.154 11.7825 3.154 12.0692H2.104C2.104 11.2026 2.80658 10.5 3.67325 10.5H18.375C19.2449 10.5 19.95 11.2052 19.95 12.075V12.9968H18.9V12.075C18.9 11.7851 18.665 11.55 18.375 11.55H3.67325Z" fill="white"/>
<rect x="18.9" y="11.5498" width="1.05" height="3.15" rx="0.5" fill="white"/>
<path fill-rule="evenodd" clip-rule="evenodd" d="M9.76502 17.115V19.635H12.285V17.115H9.76502ZM9.45002 15.75C8.87013 15.75 8.40002 16.2201 8.40002 16.8V19.95C8.40002 20.5299 8.87013 21 9.45002 21H12.6C13.1799 21 13.65 20.5299 13.65 19.95V16.8C13.65 16.2201 13.1799 15.75 12.6 15.75H9.45002Z" fill="white"/>
<path fill-rule="evenodd" clip-rule="evenodd" d="M1.365 17.115V19.635H3.885V17.115H1.365ZM1.05 15.75C0.470101 15.75 0 16.2201 0 16.8V19.95C0 20.5299 0.470101 21 1.05 21H4.2C4.7799 21 5.25 20.5299 5.25 19.95V16.8C5.25 16.2201 4.7799 15.75 4.2 15.75H1.05Z" fill="white"/>
</svg>
