<svg width="16" height="14" viewBox="0 0 16 14" fill="none" xmlns="http://www.w3.org/2000/svg">
<rect x="0.5" y="2.5" width="15" height="11" rx="0.5" stroke="white"/>
<path d="M9.5 8C9.5 6.61929 10.6193 5.5 12 5.5H15.5V10.5H12C10.6193 10.5 9.5 9.38071 9.5 8Z" stroke="white"/>
<path fill-rule="evenodd" clip-rule="evenodd" d="M10.5 8C10.5 7.17157 11.1716 6.5 12 6.5C12.8284 6.5 13.5 7.17157 13.5 8C13.5 8.82843 12.8284 9.5 12 9.5C11.1716 9.5 10.5 8.82843 10.5 8ZM12 7.5C11.7239 7.5 11.5 7.72386 11.5 8C11.5 8.27614 11.7239 8.5 12 8.5C12.2761 8.5 12.5 8.27614 12.5 8C12.5 7.72386 12.2761 7.5 12 7.5Z" fill="white"/>
<path fill-rule="evenodd" clip-rule="evenodd" d="M12.5076 1.91051C12.305 1.5331 11.8825 1.29534 11.424 1.35775L7.44336 1.89956C8.89097 1.89843 10.3078 1.90195 11.3658 1.90576C11.8217 1.90741 12.2111 1.90911 12.5076 1.91051ZM13.1335 2.41376H13.6335C13.6335 1.16215 12.5293 0.198085 11.2891 0.366885L2.91123 1.50721L2.89021 1.51194L2.98341 1.92598C2.98342 1.92598 2.98341 1.92598 2.98341 1.92598L2.89021 1.51194L2.76685 1.5398C2.68913 1.5574 2.57914 1.58235 2.44998 1.61181C2.19183 1.6707 1.85636 1.74778 1.54863 1.82018C1.24421 1.8918 0.957246 1.96109 0.801725 2.00359C0.763983 2.01391 0.723818 2.02537 0.690704 2.03658C0.67929 2.04044 0.642646 2.05283 0.604477 2.07228C0.592875 2.07819 0.573429 2.08859 0.550908 2.10367C0.533515 2.11531 0.486807 2.14757 0.441338 2.20291C0.403144 2.24939 0.28959 2.40696 0.339266 2.62999C0.3887 2.85193 0.557156 2.9464 0.610264 2.9721C0.674169 3.00301 0.729586 3.0128 0.750204 3.01612C0.776826 3.02042 0.798755 3.02178 0.811781 3.02233C0.837852 3.02342 0.859549 3.0224 0.871084 3.02173C0.895749 3.02029 0.919707 3.01752 0.937826 3.0152C0.976226 3.01029 1.02553 3.00255 1.08365 2.99269C1.15496 2.98059 1.38991 2.96519 1.79553 2.95201C2.18392 2.9394 2.69273 2.92954 3.2813 2.92196C4.45789 2.90679 5.94414 2.90081 7.40405 2.89959C8.8636 2.89837 10.2953 2.90191 11.3622 2.90576C11.8956 2.90768 12.3377 2.90968 12.6465 2.9112L13.13 2.91375C13.1301 2.91375 13.1305 2.91375 13.1335 2.41376Z" fill="white"/>
</svg>
