<svg width="21" height="21" viewBox="0 0 21 21" fill="none" xmlns="http://www.w3.org/2000/svg">
<path fill-rule="evenodd" clip-rule="evenodd" d="M1.89976 1.36644C1.59879 1.36644 1.35492 1.61708 1.35492 1.92579V5.9845C1.35492 6.29321 1.59879 6.54483 1.89976 6.54483H19.1004C19.4004 6.54483 19.6452 6.29321 19.6452 5.9845V1.92579C19.6452 1.61708 19.4004 1.36644 19.1004 1.36644H1.89976ZM1.89976 7.91134C1.59879 7.91134 1.35492 8.16198 1.35492 8.47069V12.5294C1.35492 12.8381 1.59879 13.0888 1.89976 13.0888H19.1004C19.4004 13.0888 19.6452 12.8381 19.6452 12.5294V8.47069C19.6452 8.16198 19.4004 7.91134 19.1004 7.91134H1.89976ZM1.89976 14.4552C1.59879 14.4552 1.35492 14.7068 1.35492 15.0155V19.0742C1.35492 19.3829 1.59879 19.6336 1.89976 19.6336H19.1004C19.4004 19.6336 19.6452 19.3829 19.6452 19.0742V15.0155C19.6452 14.7068 19.4004 14.4552 19.1004 14.4552H1.89976ZM19.1004 21H1.89978C1.41397 21 0.747196 21 0.36397 20.6071C-0.000868469 20.2326 9.92883e-05 19.619 9.92883e-05 19.1265V15.0155C9.92883e-05 14.5548 0.163648 14.1184 0.456873 13.7719C0.163648 13.4265 9.92883e-05 12.99 9.92883e-05 12.5294V8.47064C9.92883e-05 8.01 0.163648 7.57355 0.456873 7.22806C0.163648 6.88161 9.92883e-05 6.44516 9.92883e-05 5.98452V1.92581C-0.000868454 1.40806 -0.00183621 0.842903 0.364938 0.470323C0.767519 0.0609677 1.49913 0 1.89978 0H19.1004C19.504 0 20.2569 0 20.6682 0.490645C20.9604 0.840968 21.0001 1.4129 21.0001 1.92581V5.98452C21.0001 6.44516 20.8375 6.88258 20.5443 7.22806C20.8375 7.57355 21.0001 8.01097 21.0001 8.47064V12.5294C21.0001 12.99 20.8365 13.4265 20.5433 13.7729C20.8365 14.1184 21.0001 14.5548 21.0001 15.0155V19.0742C21.0001 19.4642 21.0001 20.0545 20.6643 20.4406C20.2259 20.9458 19.4246 21 19.1004 21V21Z" fill="white"/>
<path fill-rule="evenodd" clip-rule="evenodd" d="M2.4032 3.87106C2.4032 3.06045 3.06033 2.40332 3.87094 2.40332C4.68155 2.40332 5.33868 3.06045 5.33868 3.87106C5.33868 4.68167 4.68155 5.3388 3.87094 5.3388C3.06033 5.3388 2.4032 4.68167 2.4032 3.87106ZM3.87094 3.40332C3.61261 3.40332 3.4032 3.61274 3.4032 3.87106C3.4032 4.12939 3.61261 4.3388 3.87094 4.3388C4.12927 4.3388 4.33868 4.12939 4.33868 3.87106C4.33868 3.61274 4.12927 3.40332 3.87094 3.40332Z" fill="white"/>
<path fill-rule="evenodd" clip-rule="evenodd" d="M2.4032 10.645C2.4032 9.83438 3.06033 9.17725 3.87094 9.17725C4.68155 9.17725 5.33868 9.83438 5.33868 10.645C5.33868 11.4556 4.68155 12.1127 3.87094 12.1127C3.06033 12.1127 2.4032 11.4556 2.4032 10.645ZM3.87094 10.1772C3.61261 10.1772 3.4032 10.3867 3.4032 10.645C3.4032 10.9033 3.61261 11.1127 3.87094 11.1127C4.12927 11.1127 4.33868 10.9033 4.33868 10.645C4.33868 10.3867 4.12927 10.1772 3.87094 10.1772Z" fill="white"/>
<path fill-rule="evenodd" clip-rule="evenodd" d="M2.4032 17.4194C2.4032 16.6088 3.06033 15.9517 3.87094 15.9517C4.68155 15.9517 5.33868 16.6088 5.33868 17.4194C5.33868 18.23 4.68155 18.8871 3.87094 18.8871C3.06033 18.8871 2.4032 18.23 2.4032 17.4194ZM3.87094 16.9517C3.61261 16.9517 3.4032 17.1611 3.4032 17.4194C3.4032 17.6777 3.61261 17.8871 3.87094 17.8871C4.12927 17.8871 4.33868 17.6777 4.33868 17.4194C4.33868 17.1611 4.12927 16.9517 3.87094 16.9517Z" fill="white"/>
<rect x="8.70966" y="2.90332" width="9.67742" height="0.967742" rx="0.483871" fill="white"/>
<rect x="8.70966" y="9.67725" width="9.67742" height="0.967742" rx="0.483871" fill="white"/>
<rect x="8.70966" y="16.4517" width="9.67742" height="0.967742" rx="0.483871" fill="white"/>
</svg>
