<svg width="23" height="21" viewBox="0 0 23 21" fill="none" xmlns="http://www.w3.org/2000/svg">
<path fill-rule="evenodd" clip-rule="evenodd" d="M10.2874 18.8711C10.2874 19.2678 9.96528 19.5899 9.56853 19.5899C9.17179 19.5899 8.84968 19.2678 8.84968 18.8711C8.84968 18.4754 9.17179 18.1522 9.56853 18.1522C9.96528 18.1522 10.2874 18.4754 10.2874 18.8711ZM9.56853 16.7432C8.39465 16.7432 7.44061 17.6982 7.44061 18.8711C7.44061 20.045 8.39465 21 9.56853 21C10.7414 21 11.6965 20.045 11.6965 18.8711C11.6965 17.6982 10.7414 16.7432 9.56853 16.7432Z" fill="white"/>
<path fill-rule="evenodd" clip-rule="evenodd" d="M17.214 18.8711C17.214 19.2678 16.8919 19.5899 16.4951 19.5899C16.0984 19.5899 15.7763 19.2678 15.7763 18.8711C15.7763 18.4754 16.0984 18.1522 16.4951 18.1522C16.8919 18.1522 17.214 18.4754 17.214 18.8711ZM16.4951 16.7432C15.3212 16.7432 14.3672 17.6982 14.3672 18.8711C14.3672 20.045 15.3212 21 16.4951 21C17.668 21 18.623 20.045 18.623 18.8711C18.623 17.6982 17.668 16.7432 16.4951 16.7432Z" fill="white"/>
<path fill-rule="evenodd" clip-rule="evenodd" d="M9.08107 7.70477H16.9813C17.3422 7.70477 17.6347 7.41129 17.6347 7.05136C17.6347 6.6904 17.3422 6.39795 16.9813 6.39795H9.08107C8.72011 6.39795 8.42664 6.6904 8.42664 7.05136C8.42664 7.41129 8.72011 7.70477 9.08107 7.70477" fill="white"/>
<path fill-rule="evenodd" clip-rule="evenodd" d="M16.551 9.26001H9.51077C9.15083 9.26001 8.85736 9.55348 8.85736 9.91444C8.85736 10.2744 9.15083 10.5678 9.51077 10.5678H16.551C16.912 10.5678 17.2044 10.2744 17.2044 9.91444C17.2044 9.55348 16.912 9.26001 16.551 9.26001" fill="white"/>
<path fill-rule="evenodd" clip-rule="evenodd" d="M21.3157 4.97821L19.8371 12.1565H6.22601L4.74741 4.97821H21.3157ZM22.4774 4.03133C22.2381 3.73786 21.8833 3.56914 21.5039 3.56914H4.457L4.13592 2.00771C4.0531 1.6079 3.78008 1.27148 3.4048 1.10889L0.985454 0.0587365C0.629607 -0.0966908 0.21343 0.0669169 0.0580033 0.424809C-0.0964014 0.780655 0.0682287 1.19683 0.424075 1.35226L2.77082 2.37072L5.42229 15.2405C5.54193 15.8213 6.06036 16.2436 6.65241 16.2436H19.8596C20.2492 16.2436 20.5652 15.9277 20.5652 15.5391C20.5652 15.1505 20.2492 14.8345 19.8596 14.8345H6.77716L6.51641 13.5656H19.9619C20.555 13.5656 21.0724 13.1443 21.192 12.5624L22.734 5.07842C22.8107 4.70724 22.7177 4.32583 22.4774 4.03133Z" fill="white"/>
</svg>
