<svg width="25" height="21" viewBox="0 0 25 21" fill="none" xmlns="http://www.w3.org/2000/svg">
<path fill-rule="evenodd" clip-rule="evenodd" d="M9.2066 15.9132H19.8841V4.15979H1.42029V15.9132H5.52911V18.3534L9.2066 15.9132ZM4.10882 21.0004V17.3335H1.01449C0.454204 17.3335 0 16.8793 0 16.319V3.754C0 3.19371 0.454204 2.7395 1.01449 2.7395H20.2899C20.8501 2.7395 21.3043 3.19371 21.3043 3.75399V16.319C21.3043 16.8793 20.8501 17.3335 20.2899 17.3335H9.63495L4.10882 21.0004Z" fill="white"/>
<path fill-rule="evenodd" clip-rule="evenodd" d="M5.07248 1.42078C4.90439 1.42078 4.76813 1.55704 4.76813 1.72513V3.97128H3.34784V1.72513C3.34784 0.772635 4.11999 0.000488281 5.07248 0.000488281H22.3712C23.3237 0.000488281 24.0958 0.772637 24.0958 1.72513V12.2858C24.0958 13.2383 23.3237 14.0104 22.3712 14.0104H20.065V12.5901H22.3712C22.5393 12.5901 22.6756 12.4539 22.6756 12.2858V1.72513C22.6756 1.55704 22.5393 1.42078 22.3712 1.42078H5.07248Z" fill="white"/>
<rect x="3.04346" y="6.79761" width="12.1739" height="1.01449" rx="0.5" fill="white"/>
<rect x="3.04346" y="9.84106" width="10.1449" height="1.01449" rx="0.5" fill="white"/>
<rect x="3.04346" y="12.8845" width="11.1594" height="1.01449" rx="0.5" fill="white"/>
</svg>
