<svg width="18" height="18" viewBox="0 0 18 18" fill="none" xmlns="http://www.w3.org/2000/svg">
<path fill-rule="evenodd" clip-rule="evenodd" d="M9 17C13.4112 17 17 13.411 17 9C17 4.58898 13.4112 1 9 1C4.5888 1 1 4.58898 1 9C1 13.411 4.58898 17 9 17ZM11.0542 16.1429C11.8398 15.448 12.4956 14.3678 12.9406 13.0443C13.6302 13.166 14.2869 13.3212 14.9065 13.507C13.9499 14.758 12.6052 15.6962 11.0542 16.1429ZM13.109 12.4988C13.8615 12.6343 14.5771 12.8089 15.2487 13.0192C15.9493 11.9337 16.3749 10.6558 16.4267 9.28284H13.566C13.5429 10.4325 13.3817 11.5212 13.109 12.4988ZM16.4267 8.71698H13.5662C13.5431 7.56729 13.3819 6.4784 13.109 5.5008C13.8617 5.36551 14.5772 5.19076 15.2489 4.98027C15.9493 6.06596 16.3749 7.34418 16.4267 8.71698ZM12.9406 4.9552C13.6302 4.83378 14.2871 4.67858 14.9065 4.4928C13.9497 3.2416 12.605 2.30364 11.0539 1.85671C11.8396 2.55164 12.4956 3.63182 12.9406 4.9552ZM9.28302 1.58649C10.5904 1.75698 11.7262 3.09707 12.3886 5.04622C11.4011 5.19182 10.3573 5.27022 9.28302 5.28231V1.58649ZM12.557 5.592C11.5163 5.74969 10.4162 5.83591 9.28302 5.84818V8.71698H13.0004C12.9776 7.59396 12.8199 6.53476 12.557 5.592ZM9.28302 9.28302H13.0004C12.9776 10.4057 12.8199 11.4651 12.557 12.408C11.5163 12.2498 10.4162 12.1643 9.28302 12.1515V9.28302ZM12.3884 12.9536C11.4011 12.8078 10.3573 12.7294 9.28302 12.7175V16.4132C10.5906 16.2427 11.7262 14.9029 12.3884 12.9536ZM8.71698 16.4132C7.4096 16.2427 6.27378 14.9029 5.61138 12.9536C6.59893 12.8078 7.64267 12.7294 8.71698 12.7175V16.4132ZM5.44302 12.408C6.48373 12.25 7.58382 12.1643 8.71698 12.1515V9.28302H4.99947C5.0224 10.4057 5.18009 11.4651 5.44302 12.408ZM8.71698 8.71698H4.99947C5.0224 7.59396 5.18009 6.53476 5.44302 5.592C6.48373 5.74969 7.584 5.83591 8.71698 5.84818V8.71698ZM8.71698 5.28249V1.58649C7.4096 1.75698 6.2736 3.09707 5.61138 5.0464C6.59893 5.192 7.64267 5.2704 8.71698 5.28249ZM6.94613 1.85671C6.16036 2.55164 5.50453 3.63182 5.05956 4.9552C4.36978 4.83396 3.71307 4.67858 3.09333 4.4928C4.05031 3.2416 5.39502 2.30364 6.94613 1.85671ZM4.8912 5.50098C4.13849 5.36569 3.42293 5.19093 2.75129 4.98062C2.05049 6.06596 1.62489 7.34418 1.57316 8.71716H4.43413C4.45707 7.56747 4.61831 6.47858 4.8912 5.50098ZM1.57316 9.28302H4.43413C4.45707 10.4327 4.61831 11.5214 4.8912 12.4988C4.13849 12.6341 3.42276 12.8091 2.75111 13.0194C2.05049 11.9337 1.62489 10.6556 1.57316 9.28302ZM6.94596 16.1429C6.16018 15.448 5.50436 14.3676 5.05956 13.0443C4.36978 13.166 3.71307 13.3212 3.09333 13.507C4.05013 14.758 5.39467 15.6962 6.94596 16.1429Z" fill="white" stroke="white" stroke-width="0.4"/>
</svg>
