<svg width="19" height="14" viewBox="0 0 19 14" fill="none" xmlns="http://www.w3.org/2000/svg">
<path d="M10 3.5C10 3.22386 10.2239 3 10.5 3H13.5C13.7761 3 14 3.22386 14 3.5C14 3.77614 13.7761 4 13.5 4H10.5C10.2239 4 10 3.77614 10 3.5Z" fill="white"/>
<path d="M10 5.5C10 5.22386 10.2239 5 10.5 5H13.5C13.7761 5 14 5.22386 14 5.5C14 5.77614 13.7761 6 13.5 6H10.5C10.2239 6 10 5.77614 10 5.5Z" fill="white"/>
<path d="M10 7.5C10 7.22386 10.2239 7 10.5 7H13.5C13.7761 7 14 7.22386 14 7.5C14 7.77614 13.7761 8 13.5 8H10.5C10.2239 8 10 7.77614 10 7.5Z" fill="white"/>
<path fill-rule="evenodd" clip-rule="evenodd" d="M15 1H1V10H15V1ZM1 0C0.447715 0 0 0.447715 0 1V10C0 10.5523 0.447715 11 1 11H15C15.5523 11 16 10.5523 16 10V1C16 0.447715 15.5523 0 15 0H1Z" fill="white"/>
<path fill-rule="evenodd" clip-rule="evenodd" d="M8.96456 10C8.98791 10.1633 9 10.3302 9 10.5V11H2V10.5C2 10.3302 2.01209 10.1633 2.03544 10C2.27806 8.30385 3.73676 7 5.5 7C7.26324 7 8.72194 8.30385 8.96456 10ZM3.05001 10C3.28164 8.85888 4.29052 8 5.5 8C6.70948 8 7.71836 8.85888 7.94999 10H3.05001Z" fill="white"/>
<path fill-rule="evenodd" clip-rule="evenodd" d="M3.5 4.5C3.5 3.39543 4.39543 2.5 5.5 2.5C6.60457 2.5 7.5 3.39543 7.5 4.5C7.5 5.60457 6.60457 6.5 5.5 6.5C4.39543 6.5 3.5 5.60457 3.5 4.5ZM5.5 3.5C4.94772 3.5 4.5 3.94772 4.5 4.5C4.5 5.05228 4.94772 5.5 5.5 5.5C6.05228 5.5 6.5 5.05228 6.5 4.5C6.5 3.94772 6.05228 3.5 5.5 3.5Z" fill="white"/>
<path fill-rule="evenodd" clip-rule="evenodd" d="M18.5 4.69824V12.0002C18.5 12.8287 17.8284 13.5002 17 13.5002H6.07141V12.5002H17C17.2761 12.5002 17.5 12.2764 17.5 12.0002V4.69824H18.5Z" fill="white"/>
</svg>
