<svg width="22" height="21" viewBox="0 0 22 21" fill="none" xmlns="http://www.w3.org/2000/svg">
<path fill-rule="evenodd" clip-rule="evenodd" d="M8.76669 16.1122C9.96576 16.1122 11.0977 15.8249 12.0975 15.3154C12.5325 15.0936 12.9424 14.8299 13.322 14.5294C13.5704 14.3327 13.8058 14.1204 14.0267 13.8938C14.3595 13.5523 14.6594 13.1786 14.9212 12.7777C15.6741 11.6247 16.1117 10.247 16.1117 8.76717C16.1117 4.71061 12.8232 1.42211 8.76669 1.42211C4.71012 1.42211 1.42162 4.71061 1.42162 8.76717C1.42162 12.8237 4.71012 16.1122 8.76669 16.1122ZM8.76669 17.5339C10.3617 17.5339 11.8572 17.1079 13.1457 16.3635C13.5646 16.1216 13.9615 15.8459 14.333 15.5403C14.5774 15.3392 14.8108 15.1251 15.032 14.8991C15.3649 14.559 15.6704 14.1919 15.9448 13.8013C16.9457 12.3767 17.5334 10.6406 17.5334 8.76717C17.5334 3.92547 13.6084 0.000488281 8.76669 0.000488281C3.92498 0.000488281 0 3.92547 0 8.76717C0 13.6089 3.92498 17.5339 8.76669 17.5339Z" fill="white"/>
<path d="M18.9029 19.4401C18.7178 19.6251 18.4178 19.6251 18.2327 19.4401L14.333 15.5403C13.9615 15.8459 13.5646 16.1216 13.1457 16.3635L17.2275 20.4453C17.9677 21.1855 19.1679 21.1855 19.9081 20.4453C20.6483 19.7051 20.6483 18.5049 19.9081 17.7647L15.9448 13.8013C15.6704 14.1919 15.3649 14.559 15.032 14.8991L18.9029 18.7699C19.0879 18.955 19.0879 19.255 18.9029 19.4401Z" fill="white"/>
<path fill-rule="evenodd" clip-rule="evenodd" d="M19.3869 1.89599H16.8225V0.474365H21.7982V5.45005H20.3766V2.92477L21.413 2.09565L20.5249 0.985551L19.3869 1.89599ZM19.3869 1.89599L12.7574 7.1996L10.7343 4.93856L3.80981 10.709L4.71992 11.8011L10.59 6.90933L12.5949 9.1501L20.3766 2.92477V1.89599H19.3869Z" fill="white"/>
<path d="M21.413 2.09565L20.5249 0.985551L19.3869 1.89599H20.3766V2.92477L21.413 2.09565Z" fill="white"/>
</svg>
