<svg width="17" height="21" viewBox="0 0 17 21" fill="none" xmlns="http://www.w3.org/2000/svg">
<path fill-rule="evenodd" clip-rule="evenodd" d="M7.69259 0.344521L7.68615 0.349762L7.65863 0.371845C7.63341 0.391913 7.59463 0.422376 7.54321 0.461627C7.44034 0.540165 7.28719 0.653656 7.09119 0.789292C6.69845 1.06107 6.13757 1.41904 5.46749 1.76254C4.10948 2.4587 2.38651 3.05219 0.729839 2.84569L0 2.75472V11.3944C0 15.9046 3.32171 19.8074 7.94908 20.9607L8.10687 21L8.26458 20.9603C12.8842 19.7984 16.1448 15.9096 16.1448 11.4108V2.75467L15.4149 2.8457C13.7601 3.05208 12.0546 2.45911 10.7147 1.76399C10.0533 1.4209 9.50099 1.06336 9.11465 0.79193C8.92185 0.656474 8.77136 0.543153 8.67036 0.464771C8.61989 0.4256 8.58185 0.395213 8.55714 0.375218L8.53022 0.353244L8.52449 0.348494L8.52364 0.347787L8.1098 0L7.69259 0.344521ZM8.10301 1.66418C8.02262 1.72261 7.93149 1.78751 7.83038 1.85747C7.40248 2.15359 6.79217 2.54321 6.06008 2.91851C4.78684 3.57121 3.0804 4.21423 1.29901 4.1854V11.3944C1.29901 15.1878 4.07009 18.585 8.10543 19.6596C12.1255 18.5798 14.8458 15.201 14.8458 11.4108V4.18543C13.0681 4.21402 11.3762 3.57058 10.1165 2.91706C9.39223 2.54135 8.78986 2.1513 8.36789 1.85484C8.26982 1.78593 8.18128 1.72194 8.10301 1.66418Z" fill="white"/>
<rect x="12.4853" y="7.82837" width="1" height="8" rx="0.5" transform="rotate(45 12.4853 7.82837)" fill="white"/>
<rect x="4" y="10.6567" width="1" height="5" rx="0.5" transform="rotate(-45 4 10.6567)" fill="white"/>
</svg>
