<svg width="25" height="25" viewBox="0 0 25 25" fill="none" xmlns="http://www.w3.org/2000/svg">
<g clip-path="url(#clip0_1_4105)">
<path fill-rule="evenodd" clip-rule="evenodd" d="M25 12.5C25 19.4035 19.4035 25 12.5 25C5.5965 25 0 19.4035 0 12.5C0 5.5965 5.5965 0 12.5 0C19.4035 0 25 5.5965 25 12.5Z" fill="#3DBDF6"/>
<path d="M15.8628 11.5557H15.3906V13.4446H15.8628C15.9881 13.4446 16.1082 13.3948 16.1968 13.3062C16.2853 13.2177 16.3351 13.0976 16.3351 12.9723V12.0279C16.3351 11.9026 16.2853 11.7825 16.1968 11.694C16.1082 11.6054 15.9881 11.5557 15.8628 11.5557Z" fill="white"/>
<path d="M17.7517 5.88867H7.36285C7.23761 5.88867 7.11749 5.93842 7.02894 6.02698C6.94038 6.11554 6.89062 6.23565 6.89062 6.36089V18.6387C6.89062 18.7639 6.94038 18.884 7.02894 18.9726C7.11749 19.0611 7.23761 19.1109 7.36285 19.1109H17.7517C17.877 19.1109 17.9971 19.0611 18.0856 18.9726C18.1742 18.884 18.224 18.7639 18.224 18.6387V6.36089C18.224 6.23565 18.1742 6.11554 18.0856 6.02698C17.9971 5.93842 17.877 5.88867 17.7517 5.88867ZM9.01562 12.0276H9.48785C9.80096 12.0276 10.1012 12.1519 10.3226 12.3733C10.544 12.5947 10.6684 12.895 10.6684 13.2081C10.6684 13.5212 10.544 13.8215 10.3226 14.0429C10.1012 14.2643 9.80096 14.3887 9.48785 14.3887H8.30729C8.18205 14.3887 8.06194 14.3389 7.97338 14.2504C7.88482 14.1618 7.83507 14.0417 7.83507 13.9164C7.83507 13.7912 7.88482 13.6711 7.97338 13.5825C8.06194 13.494 8.18205 13.4442 8.30729 13.4442H9.48785C9.55047 13.4442 9.61053 13.4194 9.65481 13.3751C9.69909 13.3308 9.72396 13.2707 9.72396 13.2081C9.72396 13.1455 9.69909 13.0854 9.65481 13.0412C9.61053 12.9969 9.55047 12.972 9.48785 12.972H9.01562C8.70253 12.972 8.40224 12.8476 8.18085 12.6262C7.95945 12.4048 7.83507 12.1046 7.83507 11.7915C7.83507 11.4783 7.95945 11.1781 8.18085 10.9567C8.40224 10.7353 8.70253 10.6109 9.01562 10.6109H10.1962C10.3214 10.6109 10.4415 10.6606 10.5301 10.7492C10.6187 10.8378 10.6684 10.9579 10.6684 11.0831C10.6684 11.2084 10.6187 11.3285 10.5301 11.417C10.4415 11.5056 10.3214 11.5553 10.1962 11.5553H9.01562C8.95301 11.5553 8.89295 11.5802 8.84867 11.6245C8.80439 11.6688 8.77951 11.7288 8.77951 11.7915C8.77951 11.8541 8.80439 11.9141 8.84867 11.9584C8.89295 12.0027 8.95301 12.0276 9.01562 12.0276ZM12.3212 12.0276H12.7934C13.1065 12.0276 13.4068 12.1519 13.6282 12.3733C13.8496 12.5947 13.974 12.895 13.974 13.2081C13.974 13.5212 13.8496 13.8215 13.6282 14.0429C13.4068 14.2643 13.1065 14.3887 12.7934 14.3887H11.6128C11.4876 14.3887 11.3675 14.3389 11.2789 14.2504C11.1904 14.1618 11.1406 14.0417 11.1406 13.9164C11.1406 13.7912 11.1904 13.6711 11.2789 13.5825C11.3675 13.494 11.4876 13.4442 11.6128 13.4442H12.7934C12.856 13.4442 12.9161 13.4194 12.9604 13.3751C13.0046 13.3308 13.0295 13.2707 13.0295 13.2081C13.0295 13.1455 13.0046 13.0854 12.9604 13.0412C12.9161 12.9969 12.856 12.972 12.7934 12.972H12.3212C12.0081 12.972 11.7078 12.8476 11.4864 12.6262C11.265 12.4048 11.1406 12.1046 11.1406 11.7915C11.1406 11.4783 11.265 11.1781 11.4864 10.9567C11.7078 10.7353 12.0081 10.6109 12.3212 10.6109H13.5017C13.627 10.6109 13.7471 10.6606 13.8356 10.7492C13.9242 10.8378 13.974 10.9579 13.974 11.0831C13.974 11.2084 13.9242 11.3285 13.8356 11.417C13.7471 11.5056 13.627 11.5553 13.5017 11.5553H12.3212C12.2586 11.5553 12.1985 11.5802 12.1542 11.6245C12.1099 11.6688 12.0851 11.7288 12.0851 11.7915C12.0851 11.8541 12.1099 11.9141 12.1542 11.9584C12.1985 12.0027 12.2586 12.0276 12.3212 12.0276ZM17.2795 12.972C17.2795 13.3477 17.1303 13.7081 16.8646 13.9737C16.5989 14.2394 16.2386 14.3887 15.8628 14.3887H14.9184C14.7932 14.3887 14.673 14.3389 14.5845 14.2504C14.4959 14.1618 14.4462 14.0417 14.4462 13.9164V11.0831C14.4462 10.9579 14.4959 10.8378 14.5845 10.7492C14.673 10.6606 14.7932 10.6109 14.9184 10.6109H15.8628C16.2386 10.6109 16.5989 10.7602 16.8646 11.0258C17.1303 11.2915 17.2795 11.6518 17.2795 12.0276V12.972Z" fill="white"/>
<path d="M8.77648 4H7.83203V5.88889H8.77648V4Z" fill="white"/>
<path d="M6.89062 8.72179V7.77734H5.00173V8.72179H6.89062Z" fill="white"/>
<path d="M20.1094 8.72179V7.77734H18.2205V8.72179H20.1094Z" fill="white"/>
<path d="M8.77648 19.1113H7.83203V21.0002H8.77648V19.1113Z" fill="white"/>
<path d="M11.6125 4H10.668V5.88889H11.6125V4Z" fill="white"/>
<path d="M6.89062 11.5558V10.6113H5.00174V11.5558H6.89062Z" fill="white"/>
<path d="M20.1094 11.5558V10.6113H18.2205V11.5558H20.1094Z" fill="white"/>
<path d="M11.6125 19.1113H10.668V21.0002H11.6125V19.1113Z" fill="white"/>
<path d="M14.4444 4H13.5V5.88889H14.4444V4Z" fill="white"/>
<path d="M6.89062 14.3888V13.4443H5.00173V14.3888H6.89062Z" fill="white"/>
<path d="M20.1094 14.3888V13.4443H18.2205V14.3888H20.1094Z" fill="white"/>
<path d="M14.4444 19.1113H13.5V21.0002H14.4444V19.1113Z" fill="white"/>
<path d="M17.2765 4H16.332V5.88889H17.2765V4Z" fill="white"/>
<path d="M6.89062 17.2218V16.2773H5.00174V17.2218H6.89062Z" fill="white"/>
<path d="M20.1094 17.2218V16.2773H18.2205V17.2218H20.1094Z" fill="white"/>
<path d="M17.2765 19.1113H16.332V21.0002H17.2765V19.1113Z" fill="white"/>
</g>
<defs>
<clipPath id="clip0_1_4105">
<rect width="25" height="25" fill="white"/>
</clipPath>
</defs>
</svg>
